<svg width="187" height="18" viewBox="0 0 187 18" fill="none" xmlns="http://www.w3.org/2000/svg">
<path d="M164.606 9.01364C164.606 7.5541 164.823 6.27276 165.257 5.16961C165.692 4.0495 166.388 3.11607 167.346 2.36933C168.305 1.60562 169.547 1.02859 171.075 0.638248C172.617 0.247906 174.496 0.0527344 176.713 0.0527344C177.91 0.0527344 179.101 0.12062 180.284 0.256392C181.482 0.375191 182.65 0.544905 183.788 0.765534C184.926 0.969191 185.997 1.20679 187 1.47833L186.169 5.78059C185.3 5.57693 184.334 5.38176 183.271 5.19507C182.208 4.99142 181.092 4.8217 179.925 4.68593C178.757 4.55016 177.574 4.48227 176.376 4.48227C174.923 4.48227 173.725 4.57562 172.782 4.7623C171.853 4.93202 171.12 5.20356 170.581 5.57693C170.057 5.9503 169.69 6.41701 169.48 6.97707C169.27 7.53713 169.166 8.21598 169.166 9.01364C169.166 9.79433 169.27 10.4732 169.48 11.0502C169.69 11.6103 170.057 12.077 170.581 12.4504C171.12 12.8237 171.853 13.1038 172.782 13.2904C173.725 13.4602 174.923 13.545 176.376 13.545C177.064 13.545 177.746 13.5196 178.42 13.4686C179.108 13.4177 179.782 13.3498 180.441 13.265C181.1 13.1801 181.714 13.0953 182.283 13.0104V8.78453H187V16.5489C185.997 16.8205 184.926 17.0666 183.788 17.2872C182.65 17.4909 181.482 17.6521 180.284 17.7709C179.101 17.9067 177.91 17.9745 176.713 17.9745C174.496 17.9745 172.617 17.7794 171.075 17.389C169.547 16.9987 168.305 16.4301 167.346 15.6834C166.388 14.9197 165.692 13.9863 165.257 12.8831C164.823 11.763 164.606 10.4732 164.606 9.01364Z" fill="#84E7CB"/>
<path d="M160.742 14.309H144.503V10.7196H160.742V14.309ZM154.116 0.307617L154.027 1.17316L144.93 17.6694H139.449L149.422 0.307617H154.116ZM159.956 17.6694L150.86 1.17316L150.815 0.307617H155.509L165.482 17.6694H159.956Z" fill="#84E7CB"/>
<path d="M113.755 17.6694H109.195V0.307617H114.743L123.907 13.418L133.049 0.307617H138.507V17.6694H133.948V6.44278L126.154 17.6694H121.549L113.755 6.44278V17.6694Z" fill="#84E7CB"/>
<path d="M89.6788 9.01364C89.6788 9.8113 89.7836 10.4902 89.9932 11.0502C90.2029 11.6103 90.5622 12.0855 91.0714 12.4758C91.5955 12.8492 92.3217 13.1292 93.2501 13.3159C94.1935 13.4856 95.3839 13.5705 96.8214 13.5705C98.0044 13.5705 99.1799 13.5026 100.348 13.3668C101.516 13.231 102.639 13.0613 103.717 12.8577C104.795 12.654 105.768 12.4588 106.637 12.2722L107.446 16.5744C106.412 16.8459 105.297 17.092 104.099 17.3127C102.901 17.5163 101.673 17.6775 100.415 17.7963C99.1574 17.9321 97.9071 18 96.6642 18C94.5678 18 92.7859 17.8048 91.3184 17.4145C89.851 17.0241 88.6605 16.4556 87.7471 15.7089C86.8337 14.9452 86.1673 14.0032 85.7481 12.8831C85.3288 11.763 85.1191 10.4732 85.1191 9.01364C85.1191 7.57107 85.3288 6.28973 85.7481 5.16962C86.1673 4.0495 86.8337 3.11607 87.7471 2.36933C88.6605 1.60562 89.851 1.02859 91.3184 0.638248C92.7859 0.247906 94.5678 0.0527344 96.6642 0.0527344C97.9071 0.0527344 99.1574 0.112134 100.415 0.230933C101.673 0.349734 102.901 0.519448 104.099 0.740077C105.297 0.960705 106.412 1.20679 107.446 1.47833L106.637 5.78059C105.768 5.57693 104.795 5.38176 103.717 5.19507C102.639 4.99142 101.516 4.8217 100.348 4.68593C99.1799 4.55016 98.0044 4.48227 96.8214 4.48227C95.3839 4.48227 94.1935 4.57562 93.2501 4.7623C92.3217 4.93202 91.5955 5.20356 91.0714 5.57693C90.5622 5.9503 90.2029 6.4255 89.9932 7.00253C89.7836 7.56259 89.6788 8.23296 89.6788 9.01364Z" fill="#84E7CB"/>
<path d="M83.1511 17.6694H78.5908V0.307617H83.1511V17.6694Z" fill="#84E7CB"/>
<path d="M76.531 12.7286C76.531 13.645 76.3738 14.4342 76.0593 15.0961C75.7449 15.758 75.2208 16.3095 74.4871 16.7508C73.7533 17.1751 72.7501 17.489 71.4773 17.6927C70.2194 17.8964 68.6471 17.9982 66.7604 17.9982C65.4876 17.9982 64.1774 17.9303 62.8297 17.7945C61.482 17.6757 60.1942 17.5145 58.9663 17.3108C57.7534 17.1072 56.6828 16.8781 55.7544 16.6235L56.4058 12.474C57.1844 12.6776 58.008 12.8643 58.8765 13.034C59.745 13.2038 60.6584 13.365 61.6168 13.5177C62.5901 13.6535 63.6008 13.7638 64.649 13.8487C65.7122 13.9166 66.8203 13.9505 67.9733 13.9505C68.8717 13.9505 69.598 13.925 70.152 13.8741C70.7061 13.8232 71.1328 13.7468 71.4323 13.645C71.7318 13.5432 71.934 13.4074 72.0388 13.2377C72.1586 13.051 72.2185 12.8304 72.2185 12.5758C72.2185 12.2024 72.1511 11.9394 72.0163 11.7866C71.8965 11.6169 71.7094 11.4981 71.4548 11.4302C71.2002 11.3454 70.8708 11.286 70.4665 11.252L61.9986 10.7174C60.4263 10.6156 59.161 10.361 58.2027 9.95373C57.2443 9.52945 56.5555 8.95242 56.1362 8.22265C55.717 7.47591 55.5073 6.55945 55.5073 5.47328C55.5073 4.16648 55.8517 3.11425 56.5405 2.3166C57.2443 1.51894 58.3374 0.933427 59.8199 0.560055C61.3173 0.186685 63.249 0 65.6149 0C66.3037 0 67.0749 0.0339424 67.9284 0.101827C68.7819 0.152742 69.6654 0.229113 70.5788 0.330941C71.5072 0.43277 72.4131 0.560056 73.2966 0.712799C74.1951 0.865542 75.0261 1.03526 75.7898 1.22194L75.0486 5.11688C74.4047 4.96414 73.671 4.82837 72.8474 4.70957C72.0388 4.5738 71.1778 4.46348 70.2643 4.37862C69.3509 4.2768 68.4076 4.20042 67.4342 4.14951C66.4759 4.08162 65.5175 4.04768 64.5592 4.04768C63.541 4.04768 62.7099 4.06465 62.066 4.09859C61.4371 4.13254 60.9579 4.20042 60.6285 4.30225C60.314 4.40408 60.0969 4.53985 59.9771 4.70957C59.8723 4.86231 59.8199 5.07445 59.8199 5.34599C59.8199 5.66845 59.8873 5.91454 60.022 6.08425C60.1568 6.23699 60.3664 6.34731 60.6509 6.41519C60.9504 6.46611 61.3323 6.51702 61.7965 6.56794L70.152 7.12799C71.2601 7.19588 72.211 7.36559 73.0046 7.63713C73.8132 7.89171 74.4796 8.24811 75.0037 8.70633C75.5278 9.14759 75.9096 9.70765 76.1492 10.3865C76.4037 11.0484 76.531 11.8291 76.531 12.7286Z" fill="#84E7CB"/>
<path d="M49.1057 8.47935V0.307617H53.6653V9.57401C53.6653 11.5427 53.2086 13.1465 52.2952 14.3854C51.3967 15.6243 50.1165 16.5323 48.4543 17.1093C46.8072 17.6694 44.853 17.9494 42.5919 17.9494C40.3458 17.9494 38.3917 17.6694 36.7296 17.1093C35.0674 16.5323 33.7797 15.6243 32.8662 14.3854C31.9678 13.1465 31.5186 11.5427 31.5186 9.57401V0.307617H36.0782V8.47935C36.0782 9.71827 36.3028 10.7111 36.752 11.4578C37.2162 12.1876 37.9275 12.7222 38.8858 13.0616C39.8592 13.3841 41.0945 13.5453 42.5919 13.5453C44.1193 13.5453 45.3547 13.3841 46.298 13.0616C47.2564 12.7222 47.9602 12.1876 48.4094 11.4578C48.8736 10.7111 49.1057 9.71827 49.1057 8.47935Z" fill="#84E7CB"/>
<path d="M4.55963 17.6694H0V0.307617H5.54792L14.7121 13.418L23.8538 0.307617H29.3119V17.6694H24.7523V6.44278L16.9582 17.6694H12.3537L4.55963 6.44278V17.6694Z" fill="#84E7CB"/>
</svg>
